<mxfile host="app.diagrams.net" modified="2024-07-23T08:07:10.021Z" agent="Mozilla/5.0 (Windows NT 10.0; Win64; x64) AppleWebKit/537.36 (KHTML, like Gecko) Chrome/126.0.0.0 Safari/537.36" etag="ItGo1XDlFJMqjaVRKEIi" version="24.7.3" type="device">
  <diagram name="Page-1" id="xvg2JajucnKO0a12lUM8">
    <mxGraphModel dx="1434" dy="738" grid="1" gridSize="10" guides="1" tooltips="1" connect="1" arrows="1" fold="1" page="1" pageScale="1" pageWidth="850" pageHeight="1100" math="0" shadow="0">
      <root>
        <mxCell id="0" />
        <mxCell id="1" parent="0" />
        <mxCell id="NCOwUVDB0enq9Q0JQrQG-1" value="t" style="whiteSpace=wrap;html=1;aspect=fixed;" vertex="1" parent="1">
          <mxGeometry x="72.75" y="110" width="724.5" height="724.5" as="geometry" />
        </mxCell>
        <mxCell id="NCOwUVDB0enq9Q0JQrQG-4" value="send" style="rounded=0;whiteSpace=wrap;html=1;" vertex="1" parent="1">
          <mxGeometry x="170" y="590" width="530" height="40" as="geometry" />
        </mxCell>
        <mxCell id="NCOwUVDB0enq9Q0JQrQG-5" value="" style="rounded=0;whiteSpace=wrap;html=1;" vertex="1" parent="1">
          <mxGeometry x="170" y="310" width="530" height="120" as="geometry" />
        </mxCell>
        <mxCell id="NCOwUVDB0enq9Q0JQrQG-6" value="response" style="rounded=0;whiteSpace=wrap;html=1;" vertex="1" parent="1">
          <mxGeometry x="170" y="650" width="530" height="160" as="geometry" />
        </mxCell>
        <mxCell id="NCOwUVDB0enq9Q0JQrQG-7" value="appleid" style="rounded=0;whiteSpace=wrap;html=1;" vertex="1" parent="1">
          <mxGeometry x="170" y="150" width="260" height="30" as="geometry" />
        </mxCell>
        <mxCell id="NCOwUVDB0enq9Q0JQrQG-9" value="secret" style="rounded=0;whiteSpace=wrap;html=1;" vertex="1" parent="1">
          <mxGeometry x="450" y="150" width="250" height="30" as="geometry" />
        </mxCell>
        <mxCell id="NCOwUVDB0enq9Q0JQrQG-10" value="天际接口测试" style="text;html=1;align=center;verticalAlign=middle;whiteSpace=wrap;rounded=0;" vertex="1" parent="1">
          <mxGeometry x="385" y="120" width="100" height="20" as="geometry" />
        </mxCell>
        <mxCell id="NCOwUVDB0enq9Q0JQrQG-14" value="" style="shape=image;verticalLabelPosition=bottom;labelBackgroundColor=default;verticalAlign=top;aspect=fixed;imageAspect=0;image=data:image/png,iVBORw0KGgoAAAANSUhEUgAAAocAAAEYCAIAAAChrsu+AAAgAElEQVR4Ae2dd1AT6f/Hd57Z2UkmGWBAhqI4AlYsZ8UTe8F2cjbsvSv6FQsWbKeiwomoqMepERQFFEU9RRFRLIiiiGI/BBV/iozCwCST2Zn98zebkJ5AouCF5L1/wGbz7Gc/z+vzZN/71KU4bCAAAiAAAiAAAtZBgLION+AFCIAACIAACIAAB1VGIQABEAABEAABayEAVbaWSMAPEAABEAABEIAqowyAAAiAAAiAgLUQgCpbSyTgBwiAAAiAAAhAlVEGQAAEQAAEQMBaCECVrSUS8AMEQAAEQAAEoMooAyAAAiAAAiBgLQSgytYSCfgBAiAAAiAAAlBllAEQAAEQAAEQsBYCUGVriQT8AAEQAAEQAAGoMsoACIAACIAACFgLAaiytUQCfoAACIAACIAAVBllAARAAARAAASshQBU2VoiAT9AAARAAARA4LtUmS3LvxAXuXnduoiTjyrAEARAAARAAARAoH4IWK7KbEnqkl/EhKIoioj6ROTJ6scRWAEBEAABEAABuydgsSrL8nf1FxHi4j9rV/yFe8VVdk8QAEAABEAABECgvghYrMplCZOcCfGYkfSlvlyAHRAAARAAARAAAQUBS1VZ/iw6UEQxHcOyqkEQBEAABEAABECgXglYqsqy/J39hJSg87qb0nr1A8ZAAARAAARAAAQsVuVHO3hV7ro+G6qM0gMCIAACIAAC9UvAUlWuzlzVnqGEvbc/wNjr+o0ErIEACIAACICAZarMvjuzoB1DEbepiWVgBwIgAAIgAAIgUL8EzFXlisIL+8PnD2vrSCji2GN1OkS5fuMAayAAAiAAAiDAcWaqctX5RS1oxcIhTl3mJ75A6zXKDgiAAAiAAAjUPwEzVZkrz0uODJs9omMTmhDngPDM8vp3BRZBAARAAARAwM4JmKvKNZgqcrf2E2MRETsvNMg+CIAACIBAAxGwUJU56a3wrgJKiPWvGygeMAsCIAACIGDPBCxVZRnmK9tzcUHeQQAEQAAEGpSAxaqMtb0aNB4wDgIgAAIgYM8ELFXlmnWwO2EdbHsuNcg7CIAACIBAwxCwVJW5soRJToR4zkrGKOyGiQisggAIgAAI2C8Bi1VZ9iiir5Aizt1nbD+Sdvct3q9sv2UHOQcBEAABEKhvAharMse+TZ7fXkQUS4pgLHZ9xwP2QAAEQAAE7JmA5arMcZz8Y965Qzs3rlkbcepRhT3TQ95BAARAAARAoD4JfJcq16cDsAUCIAACIAACIFBDAKqMogACIAACIAAC1kIAqmwtkYAfIAACIAACIABVRhkAARAAARAAAWshAFW2lkjADxAAARAAARCAKqMMgAAIgAAIgIC1EIAqW0sk4AcIgAAIgAAIQJVRBkAABEAABEDAWghAla0lEvADBEAABEAABKDKKAMgAAIgAAIgYC0EoMrWEgn4AQIgAAKNjICsslLayFy2fnehytYfI3gIAiAAAmoClWeX+Hm3mZVQyqoP1bXDfrh+7MTdz4YnVFwO69e9/+y4AlldJox8z35OX9Xd0aVzyOn3hpaNpDc8JLu/c0zg3F3/vJHrf8eWpoQG9g9cc/6r/je2/xmqbPsxRg5BAARsiEDlqenORDzm7w/mSiFbfHxqc5p2DViW9Ez33buV6cvbMkyb/12utJyPvPj0gvYC4jp098Nqy89WnCG9vaG7gDgHHXjNq7L8Tdbp1PScfxVvPGKLDwWJKYcJx758p+1GfBpUuREHD66DAAhYMQFZZaX5VVDdxGxx6qZZ04xvUwe3ERDGp99E419PmxmW+Fyv7ikrvrx5WHOGCHzH7c3V1D7Lzi1sxRC3oO1p6Sa2KzlvjAv2l5vbhrjT/At9TW+0b8gl3acA3WBVXQ/rJCDuk+MVVW35630jRMRx3GHF0wZUWZeVLXwqL0hPPpl0Ob+M5Tj23b20UydP33j9vU90tgCkfvNgDXitwYf6pQpr303ACguD9EFUoGuT32L1BdJoHg0Sy5/tDWrmZrg5CQlhGIZQir9E4OhqmKbpoIhcI08DlU8S5nV2IIzPuH2533gv5IUxw52JaVHlvxGN2P/GoErOfrm7Z4wPQ0QdRi9dbWxbMat/M5qivUYffGLEkRoC7PvE6c1p2nfB2TLFkYrUec1oQc/N9xQd1VBlowWlMR+svhLalqFon5CLVRz3SRLsQFHCPhF5uiWkIi/xj7AVK0JXrAiLuviv3sNlY879D/vOllzdH75qRWho6IqV62IzDfqvzML7w17UbuA7fJB+evnw6Xtzns1k5cWFjx48fPJvWV1DWdjK0lcFDx8+KSrTLVxGnW+gxJWlLx8/fPzyQ4XB7VPbi4qSgtycnLvaW05ObkFJnW9Il1d8ePn4QW5uXuG72q+gfbWfu/8dhaGBHWQ/pcxuQehWiy+U130l8xKzZbl/ze7m8cvco39OdiLioK2H5v/SxG9izK1PtcZd+/LS5yfmdHRuN03yTMaxb0/OasnQTYetjIk1usUs6Ssm4t9ii3TNy95eXD/QQ1FLpt37rDj9Uv8H9fVB3PQOYtozcGuWkY5stTvS+9v7iIm4b8R95W+s6trKDgzTZnm6snYNVVaTspUdWe7WACEl6BZ+W8pxVanzPAklDjr4Vqd4yR5HDhQpnxTpFovO19bSYitYzM2H9Na2wb4eTZwdBIQSdN/AQ9TZzMGrc0IDfDDbh8o32SmxW0ImDe7oISSkyczk2mSI/XL/WNiYrh5CZcEgAreOvy3/65bBcwnHyUqyDq0MDvBxohVJiahZr+mRV4qNP9w1VOLKglNrgjo0YXgXCO3cJjDk4O2POqVcRb7qUoivsfZG4j45wUT/JPv5wcmtc4f94lnzK6GI85i4Yi3r8qpv5V/4rfyrVkut1tEqFQ2tY3Wk5KtwZptVZY4zuzCoz2jgHXlhzFBHStQn4oEZD2t1J2bLH5/+Y1LnJi5d5ycUVlfU9Cu/ryw4OrODo0uXqTvOP6+tVGtntrroxb9VHCcvSpzViqHdR+1/asrDypPTePHXvm1WvUzbNKqViDDNh204d+Pksl5NaGGr0dsvv1Ep89fHp1YPakrTnoM3XTXyo9E4whYnzvChae/ZyTXJqm+s7Syg6Gbdhwcpt+Hdm9EU06LnbzWfFf9GT99zR/9upDFqK3s22q/Mvj0wSkyJAvfwzUfSrLBODHGdlaJfcGVf/n18d+/4JgSqbKw8s6WHx4mNqrJ5eI3ZrL9jZvpQnbmqPUNRhIg9W3iKCeUw+bimW03fm/KsLQPcaCJqGbho6/6j8ZKDO5cHtXckxMl/xUUd6WKLTs1pJySEdvefHBYVJzm6f+M0fzeaOPZal6FsjtMy3VCJ5S8kU1oyRNR65PLIuGOS2C1z+jRlaLcBmzKNVFEqT892I0Tcqo/2Pe7338dOWXEsX3VL1fa57HbMRD8HQhx8+gQvCY+MPRyfmJSW/UrzE+KbP12Uzy4URRjv+Wf4YTnV19d2EauPintsuCVVNJSal7KmVdXsxGqHzSwM6vQNvVN5fXUnhnhMPKb9EGPqorUlZr++uHZs+8LA1g60S/c5h3IUkdUe7SX/cGPPlI6OtEunsasPXCos13poMnU9juO+3Nw+xJ0mrkP/zDMS/JoTv52Y4kCJf/+rRG2zIntzbyfavW9oUqGiEsOWZkUF+zkQ2v3XOXsu51zePb1bE0I3HbDi1BNNQTHmBluattiPoeim81Jreq0rMlZ2ZAihGc1GE0LpHmEYYUtF86cxmzZ0zEZVmatInulKHCfG83cKeUHkQBHjt/KasQKouFtBlY0VadOqbD5eY3br6ZiZIa56eT3ldPr9om+V18M6MrWpsvzJ7kBHwrScnvBKU31g319Y1kVIBF3W3dQqPtUZK9oxdLOgmAfquw/74dwiP4Y4Bu5+oqoh1mS0gRKXnV3gS9MeQbFP1JWHr3e3D3Ihws6rryn6DbVBW1TOqx/tH+1FC3xHbUl7YXysD8dxlU/Sdk3tLCIUEfgFbzlxR1nn+fo47eDaIF+GIuIu0yKS7n9hLUlpkVnt7JlZGLRPabh99t3xqU0J3WFFhrp0mL6Y8cS8Gku2LRz1ixtDKNq16+QtKfnqpnBtVeYNsx/vxa8b29GFEIFn9zEhW+PScotVYZM9PR+7N0a97Y27/FLOFh+b7EmLOkxeNGvEUINt1PrzymHP5fETHSjxmDjtWU/SZxmXHuk81rKf7sZO8VO3LbWeHJevurbJTJelh3bmz6C9FqbVyPvJGV404/e/y2rbaME2ia/RflF9bVV7obJbWdGx7CjsvzNfc6/V5MvwbsXKZVJ+k8nk6odETXp5+Zuc9DOJkqOSxNSreSVGCyArlylM6FtQH1cbrklo/Fqq5FJ9R9iK4vtXU08eOypJPH05581XPRVQOVtzvkym+V5e9uzmheT4o/FnbrwyuHGrzlP9r0WVzcarstUA/y31obouVS5LmOREmLahV7Tkl+M4Wd723kJKNGR3oYYj+/nGoS17r+rWhKozV3VgiOP4ox91c9swiasuLvGh6aZzTqvvY/xVy5JmetK057RE/XZsw3Ku66TWJ9nDqEAXpumoPZpHDq1vdXa/3tgY4EiIoP2SNFV7pfzF4QktaOLcd8st7RJmfkqO4yxKrHDI0sKgk4t6/iB7tKu/mHIMjH6qKTAmL2E0sfxN3Fg3wjdBuHcZs+JgZpFeiXyYtGNbREKONl+Oq3p9NTZ0TDdPAS93zWclKUtAZdIMddMDRVG09+ILfPv1q5QYyYPXcaPFRNCiR6BKmQP9vYXEYfwRZQH+zI/HEY87XGrCefbry6zjO5eN6+nFP5o5tezYyoUmFBE16x60YNPBc7klxjsF5UXJ8/wEhN9Uqlydu62vAxEP2PlIc4uGKpvA3pgPVzy9nHgxX3nHYktzzpzMMj6eS/duVX5uSRsxqWmBI7TbsGgtKa98khw+piNf8lQbETQLmB2d+V7r1yd7GDWkiToJEXjPS1E0aUrv/sHfvxRnEuLQeU3m/138X1tVjx1FiFPAH3fVlR5O/mz/KLUZQjebeeqTIhrVr9K2Tu7uruhIVHpB+Mar8CS9JiP2Q+KM5vzvk+9wdJ0gec9K31zcOqEz/+itPOjca9MNzTOFrORmXNiUgR2bOQsZkUuLzoEzNsTnPI0z0YLNcebiVTgtK86K27R8ydJ1MeefaS75w6XLIh/4xtU66srlJ6c1IZrhJir/ZLl/9BJS4t9i/zXykKZKxP+X8j1jxGF03Ls6EtZLYsU9U9At/Jam0PCPELlbeglV915t53TLufY3+vtfzi3wZVyGx5ijKRxXmRMxkK+kdVx6gR90JC3YH+RJE9fAqPv692TzU/I1ZrPN1rhvYWHQz3Q9fv56aWlbmjSflaz/YGTsGqYSV9yJXbn+4KWnX2TvT4f9PtK8LWh54hvZt1eZkm1rD9yq+aHJS3LT/7nIbxdOhAYIa1RZ4Qr7jldlt9mn1b/JqrPzm9JqVf54ZJwD5RAsUd55lN7Lv5XkZ6Ud27t1xcxhHV35oeACj25jQ6PP3P8g5eSfCy79FT5rUGsn/iZDBO5+fYOmLl4TsT/+3PW8N18UBbXqYUxQU5r2Hhu+tJ9IqcryN4eDPWim1dwU7Vo5VNlYebGTY7p3K/m/iTNa8t2QtGu7AWNnh/19h59axW+V92N+b8EQgffgkOhTV3MePc67cTZ2xTBfIS+xC1M0kv/1QVJk6KhWDEWEHceHbT94tUip2V9yE6M2LRzcjCbCjhM2S26VSt9cjpkX4EyIsMvEsI1bok7mqq6luF5BavQfG1aM8WOIqNuM3f/wjapVjw4FtxQQ2s1/+hbJxVt5+Q/vpifuWtDPiyGM18ioO9q1JumLi/u2bQpfPLQFTYlH7r4Uy5/p1HborJXh6xaP/sWVFrQJuVjzsP313v7gNkJCXNoPnR6yKmxVyLRAPxdCnNr6eTNG+5WVSMz8K7u/o7/iZ8r/UDuEpus+4ZtppB6S1anKbHHCVC+a9pkieaFROrbk3OJOAuI8dI9+w7S+S1+vhHZiiMPgKHOWSfrxxJX8HZRupldXrkpf1prh57PsU6zLoPFRUc6J66AFYQsmDOvbo3PXgOFTww5ef6vJaU3a8pQ5zZim00+WfnlxPemv6MjIPXFJ15/X0l9Z/TB6uBtNhL8sv1SSGxnoSuimow9oWtU1LnDmp+R7qM02q3WF/36X/ffvca4U0z38lm791qhnZiRm38SOFBPG06/nr7VtPTs0ExLRwKhaCilbFPub2AJVZt/HjVYs46GoVbAlqWtG9Wrrpmqqpp18eoyYFR6X/kxRNKSvbpxOTrn6RHELkn18mBa7YdGkYT1bNampGfCt1dMTP7Dy53sCxY6/hqW/f7p7SI0qc9UFB8Z1nXRUt8RClY0WGfs4qKXK7Oc7MRPbiYiDX/Cuq8WathRFK+bOAY6EaTXlaKHOj6264MBYL35i3pRj2vMHlBMBSZPfD77SqkZzFZmrfxHQTSepx4CwJYfHuRCmvabLm/1a/OLtV1Vdq+L8Im9aNEj5W5M9jBrsTGj3oRG3dZe7qcw/FOxDE1GP9Vn6/Vg1VSfP5l4i997LTz1VfS/79PpVqfKGzH68ENJBQBy7L0l6rqneVBaeXNjNgX/kNTYG26KioXjkVlbQKUo4YNdjHbIWmfqhxHWqMj8wNW11Pw9a6DNo/uaYvyWH928P+a2dA+3cde6xJzpxN3Sk7NqanmLCtF10zowqUn0kZkv5rjjac8zBZ2qgbNGJaT78SGvD/prK1LkefJuosGnnQUHBwUF92zjThAjbTo7THewlvbmus0DUe9aykS3Vo7YoIvIdHp72Rn0dvezLnh4Y3ZQmwpYd2zkS2mfKMZ1Sr53Y/JT8j85ss9qX+G/3pfe29BJQLkG6P3wTPpmTWKnKnupRUSZMVV1e2pKuZ1VWLq41KUHZny1/HTepU/fAiYvWRx05e+NJqe7v4cuxCQ56vTwKT2Xlb3KvJMdFrg9ZGnuHv73I8v/eevRJNScv1Kgyx7FfPmtXSfhTocomQm0Ph1WqfOZx8v8CXGnavf+aC2+1pZSHoOwxdB3zl+FyrdK7m/wFFBEPjdFZLeDLxZC2DBF0XXdDrXRs0ZFgD1rQbf1N9SGOfXMgyJEIemxUDveXP9//mwvtHLhbqVzSG2t+EQgDtiqWBOB7zhgi7r/joeHNUdkPRTebnaKr1zUNmhTtOmBTpvFZjfInfw5xIEL/cFWTlzroldnh/kLjM6PUaczZkeVHD3WtaUt38A/XADHn5HpMY4Yqcxz3Le/gpFbqB3y+a6/5b7tuGhnUrO2Z9Hn89DYCIuq87LzOUG3tNOr9ekssfRz7uxdNHDtN2HzkXPqVNMm2qd2cCU3ThJ998EK3EMufn1g9f81fGa9VD2ZVr1JD+ZYa50GR2vP4vyVOVSwsQbv3XRqXWfj+84fnNySrhjSjieOv667pFS91nuQv48Y15R8HaK8p8boTENVplDvmp+THaZptVu8q/9XHz2cX+PKTlGvGS9XuhlmJG1qVKcIIxepNyBBK1YLN/hv7m5hymHLCnMYtU6pskoCOKn97+/h+rv52ZctgESUesfOG3hf3C4pVZdik9Ub+ha2OwTY7LMqWPceWbVoICEU3nSQxck9RlCCK8QsO3xVpsO1Y0NuRUHTzmtGEqgvLn0QHOhG62dTjNb2MVbc3+Atp9/GHdbon5S9iholJTdWGfRM7iq+fCvsrKpSyRzv6CfnBv3ylVv40apDIyFIoyuuxJX/9LiaCzmtv6LZIKuvKtVRQ2bcHg8RE2GuLkcWAlCf/cF2ZHyOaeyp68/qNkfHZJYaPFCpiDf3fDFX+djdqeFOadus1Z+fxSzfuZF9JjgkZ1JwhLgFhl1WjmQzclBedXebvRGivoJjcOm8X9ZuYLcs5OD+gqWr8AOPmP2vX2iBnQlynn9LuzjDwWXmgOvePABFhOqzKVFd82NLDY8UURfvMSNQaysaWnlvUjh9fbmIAE/shbUlHZdsm02pGoqY7x+DC5qfkq0tmmzW4zn9yQP4idqSz2ZOUzUusUGVd6VRrqPaOkCHf14Lt0GvWlq0125bZAU7q0V7y1/uGi4jj1EStQl2VFuLXrKmRzbMJP+JL6Oxh5LumLQJ3GNxetFVZUftQtabV+V/gvylH9y73nwS7IS8KVebncVIUceg4NNBPRARtpkqe6cdceju8u6C20kKIU++t+kWlLG1xG4Zfu4ZfSIB9d2KaFy34ZXWmVhnnAyt/EjVIRBxG7HslZz9IJrr7jQvuJRQP3/tSzv57YJQD0y70iqJqrVjHnRKP1pmnoCkZlWfmeBiZdq0UVvHIWMNV85TnSu9s7CEwYVbZhlQPqqxx87/cq1OV5c/2jnAmTIeQ89oK/PVGeC8REfrXNGfo5UD25vRSf2dCNw3clmW8MULrhIZJzFYU5WacP5eWfvdVubzi0tLWDFV7U6bGI+m9zT0Fup3QXxImORLae9F59RAgRfJqxZx/h9FxmsmrajPs21OzW/PDH+aFTW7FUHTz4DhNo7o6Fb9jfkpLE+tc5j/6UHVzbRezJymbm1hZV3bsNXPD5tq2DXP7un6fKpsc7aW8M7lrDQbjGw23jx2mGrGt/X9IV36FTbeO/bUPqvZHzI8zWHhTW5Xlry/GbDHIXdj4DgJK0GXyer1vtuxPN2jM/I8i3lCXhSorVldwGxv3WlaV/1ewL0Mc/UPP646ileXv7MfPjdl1/8NHI9unT2UV+kLOx0v2OGow3xm98Nzn6txtvcXE9feDL3XbFRVd1tt7C4nz+MMlZSmzvXwWnskI7yZwHvt38cfEqW6M98I0ZQOSvPDPwSJK2DfCSAM2x6nryop6taaw1KnKsryIPkJV5VxznmJPOfi4flS58sOLgsJidYe53pV+ysc6VfnL8clOhPFbkaGuOSoxKGdGDY3RaxPmuOrC43P5hYW9gyKz62jjbsjEGnrsx5Q5/AiDfsZLiSZhzZ782e4hIl0Nr85Y4ccIuq7P1i3R/CgdPmVkgX4Blr+STPKmiah7WMYX+ftzi9oLCO0+Yo+R1wiZn5J/WjXbrEGu/psD7IeTM7zMnqRsduKGbsE2PQZbce8wdyWHH2vBNhYx9Csbo2Inx1T9ysoVN8tv7+KbMD0CI7K1u9Aq0hZ507Tn9ES9mah1Mfp0dkErhjgP3xo9y4dmOoSmG2tWlOZs8hcQj+mSpJBW7lOOf6y8GtpO4D71aOJiH8ZzVpJqqajq66s7MsRhYKTWXC3V9dl//x7vTmivOcb7lWupK3Pfzs5vThOHQYZmq+5s+rU++pW58uzIUT58Axfj3nv1eSOVLVU2Gva/marcNvSqnio/jOgrVK0Tp3Gx8vGR6e1FRNhm4oEHdfa8NVxijUMc9+XaGn8xob2mJhjphtFOqNovP7vAmyYeM5PVC1Rw3OdTMzxpt6kntOfDqNbHcwqWaDcj8LPBnigGeom6hyn7nNlPl0O7ighxGbDtjm6rkPkpLTKryopF/9mPaWtH9uvTu3fvPv0mRCvfhmCRAcPEsoI/BzuYPUnZ/MRKVXYZukaSUNsm2RDkafZoL/bzjcj5W69WKmZGNZl4KP9ZzZYfN9Vd3YItzVrzi4CfKKj7c6jJuuxNWsSW+MeqGOuqcnVh4opZYYmPa/ldaNeVDWlitJdRJnZzUFeVOY4tTV/b24UwLSf9rTXstiJjZScBEfdcfcVghG11yd2TUWvC9mYafMNXhB/uGuigfMmLy8h9z/TrGUrK0pvrugjopj1/beP8G9/U/O3cghaMR4+ebQVNJko0o4dk+bsDXQjtOTIqR+smynFcVcHfk/mVF7ubGoNdmypz367yWaNdB4anv9P4J31zdvmvivlMP1xXLkucWjPYi6KIeFiMYXPBzylsdaqyvCBqsJhvwVbMvFU5VZHzR18HwnQKy9K6O8lfJc72ExJxh5lHC7TG7hVJJnv7zEn5rDpX+b/hEmtdhy29GcW/xof2mXTUoFLP3+Tk6qVrVGdV3NsxpAmhfeam6BRdfqCiwHnILq0Jx+yH1AVtGeI8Yp/OkEauOu/PYW6ErydrjQMrzwrvxS/V+eu6TM2Trfkp+cGVZptVZcXC/1/PzG2mWBScCHuE39IE0EIzWsm/XQ1tb/YkZUsSK/uVa+s+03xXe8dFzcyohQkXNg72oIV9Ih685ac+GWyq0V7Vl5e1ogVd9SbEK/Jc8ejIzI5iwrSanVTzkK2jyrJnx+d1dSa0W6+Ff+tM99QCBlXWgqG/a88t2N/ykqO2hE/1d9DpkGU/Z20Z6Eoo4vBL8IrwTTUTjtnSf1b6OxHi0nlC+KHUzJy8B3evnT8eEzZtoGLKPHEeEqW1Lo2GMvsxZS7/VgCmXchFzT1K871ir/raSn6tZr59WmHkc+I0d76v2zHokPZ8K676cdyk1kJCu/ec8cfRCzfv592/den4zgX9vRhCNxu+67ZGrCsepURt2bAhXDlfmfEbHRpes23YtCMhR2cWAlt6aVVPJ349AK9eE0LCt0VsXbdkXA9Phoibe3vys76GLN56KOP7u3K+nZmnvAXyKws4j9V5v4EeiAb4yJZmS3Zt2bhhQ/j6eQM8aUrQZdLa8A0bNm7eGp3yUO9Zni298L/OIkI37R+y90xW7sMH2efjwn5rKSSM71Tt2T7sW8lET5p/xnD3aam9NW8i4F+yozOerwETV5a+evro/q30pAOb5w7yFRMibDn6z1s6wVUS5d+Z18LZt8/E5RFxZzJu38+7dy05OmSAF0OEbWee0J/HxBYlz2svErYOWn/k0p0HD26e27e4rwdNHHquydAqwuzHmwdm93TmF3PqOH71ttj01/xAPvZ91pGItZP5SXVE2D54F98FaH5K3oDZZr+/sFRnru7A/94o2nOCsdGdFltmiyUT3Im5k5QtScxx1SX5t7PN224/fKs7GvxomMMAACAASURBVEAnI4ox1UTk5ubED4PYfOW9vLLg4tG/Dbaj/zxRPKd8S5rpRoQGfRaVL9I2jfRmiLDNpEN56h+Qjiorw7hnYnsxoV0D/pfyQut5VuUSVFlFwsh/O1Zl+fMDoz2Vb9txGRyl7q6V3ovor7WqlkP70H+UzTTs+8zo2QHNtGbN8KuNOPoEjF/+55lHRu6FCtyy/F39RcQpcLdBh5xWNCozVnZgKPVzKfs+frI7IY4j9hrUeqSvL2yf6u+h5QShm3Qas+5UgaotiTcrf35wjGpkrt6zMKGd+kfc1xsJLS+5snNyF3Wu+bbmbpMjLj08OkmxWh8RtV12Udu+lutm7EoLE5cOauUsdGwRMOeQ8s2uZpxVT0mk2Zt7OavXWtPAIIxHUKzWGpo1l6t+dW7j6PZaL50lYt/A5fF6S/8WJ871c1KtkqaxyT92CP1qhuep/GcbKHF1xqr2NUs68PO3mnQYGbL/muGiIEo3ZC9SVo9sp70sHf+E1H70hlRjd0yOq3pyMnSIt8a8yHfomjMvdbqa5c8P/O6hYkCEvvNP830t1dfCflEtjkdolz7b7ko581Mqiq65ZlWALf4vU3RJ8GvadF2bVYuMmW1Y9oBfk9XMScoWJTbbhboTsh/PLmjDL5AkbDNh3z3NA7ypM8svLfNjiPPEY5quDGlxZsxsfzeaIo6/zJZoNRJxnGKlOd1VaTl5SfqmQH4ee+vx0bf0x11AlU2B5zjOjlW5Fiq1fFX1Pv96WtJxiSThZOrl7PySOt44qxiIrRjwVYtNjmM/PUhLTMtTj+KVvc1OOXXN5JsBKt89vJaWdPxYwsnU9Nx/v6kWHan1EnV+KS97fvN8UkJ84un0e0Xfr8F1Xsf6E0g/Fd5IO5UgiU88e+3R+/po4GyIPFe+ykpJkByVJCSlZea9raMc8g6wFcUPsy6mJB6TSBKSzt989lnv2Uzfyari3PTTifHHky/dKzLDvP7p1vqZLToY5Mg3RbmPizNcf+A7vJZmr+vC0K2XXNBqSTBpxszEVZdWdvNp8b2bT8B6zWS3Glfkb/4a3UTUevT29Lcm4175KC0u7mj8icT42PBxfmJCN50oUTf8SHO39RETinbrtSAuR3GnYkvz0s//k55x/UpKxLiWjO77pZSX/XI3ZnwrAaFbTE/UHVACVTZZRKDKtaCph6/kT/cMcyYOA3cZbd2uhwvABAiAgGUEviTN5Fc5MzJL0TI7mtTf8lP2/Z2pqzqab/X2zEsszf5z6u9B37uNnrXPyBC28tz066YVmXdTewooEfkEhp3RfmxhP2dELA5PUS8QyLFvDwUp1v/jm4sI4zU+TnfYgTLnlQUJ4ZuSdRtaOL21vfQY8R8xBtsIFBz6cQLl/yxtxxiMpvlxu7AAAiDwnQSqr4S2YSjjsxS/06TtnCb/+CzndnbW9axbeS8/VtbZBicvzk6SKLbjKZdyS3R6OOqAwn66Ff9n1L40EzPb+TcPFGYkJSZd15fzOuzaxNdowa7vMEpzIgY3c3Lg190RCfg3mzFCBxevgHCDJqX6vjDsgQAI1ElA/jwlfFrQpF031SOV6jwFCUDgpxKAKtc3brYkY3/4yhWhWtuKleuiL9WyDGF9uwB7IAACIAACjZQAVLmRBg5ugwAIgAAI2CABqLINBhVZAgEQAAEQaKQEoMqNNHBwGwRAAARAwAYJQJVtMKjIEgiAAAiAQCMlAFVupIGD2yAAAiAAAjZIAKpsg0FFlkAABEAABBopAahyIw0c3AYBEAABELBBAlBlGwwqsgQCIAACINBICUCVG2ng4DYIgAAIgIANEoAq22BQkSUQAAEQAIFGSgCq3EgDB7dBAARAAARskABU2QaDiiyBAAiAAAg0UgJQ5UYaOLgNAiAAAiBggwRsVZXLC9KTTyZdzi9jOY59dy/t1MnTN15X20QAbThrNhEfZAIEQAAEfoCAjapy9ZXQtgxF+4RcrOK4T5JgB4oS9onIk9VNii25uj98Ff8ixhUr18Vmltb55u+6TdZviu/PWv36Ybk1tiz/Qlzk5nXrIk4+qrD8dJwBAiAAAnZAwEZVWZa7NUBICbqF35ZyXFXqPE9CiYMOvjVDYqW3tg329Wji7CAglKD7Bv78793Yd9mJR1LzvphxVQsu8f1Zs+Ai9Z+ULUld8ouYUBRFEZF5D0j17wQsggAIgIC1E7BRVWbfHhglpkSBe57LOU6aFdaJIa6zUsyvoLGlh8eJf1CVZfk7+gmJ8+SEsnotBD+atXp1xmxjsvxd/UWEuPjP2hV/4V5xldknIiEIgAAI2BUBG1VlriJ5pitxnBj/heM4eUHkQBHjt/Ka+f3K9aLKuVt6CSnxmLj39VtZ/sGs/TfFuyxhkjMhHjOS+IBgAwEQAAEQMEHAVlW5+tqq9kJlt7KiY9lR2H9nvhndyjWYTKkyW1GSf+Of04nHjvx9WJKYlvX0k2mbMl6V6abzz5lZMZSXv8lJP5MoOSpJTL2aV1JpImLcD2bNlNkGPS5/Fh0oopiOYVnmPxk1qEMwDgIgAALWScBWVZmreHo58WL+VwV1tjTnzMmsf+XGQyAruRkXNmVgx2bOQkbk0qJz4IwN8TlP4/RbsOWvzoT95udCK7pG+e5RvoeUbtJl2v6ccl3DlcV5NzKupF+Km99RwLSZGftPuma7kpn75ptuco7jKp8kh4/pqG2bCJoFzI7OfG/MZ/OzZnChOg7IirPiNi1fsnRdzPlnJp8K6rBh9GtZ/s5+QkrQed3NH+inN2oZB0EABEDApgjYrCqbGaWv9/YHtxES4tJ+6PSQVWGrQqYF+rkQ4tTWz5vR7VeuuLDYhxE17zUhNCrh0q0H+Xk3z+1bGOBGE0GnlVe1hFaWv7O/sEa1jf0T9ol4qFPBrrwf83sLhgi8B4dEn7qa8+hx3o2zsSuG+QoJcei8MMXUw4SZGbQgmez+jv5OyocOIugQmq6VKQusGE0qe7SDV+Wu67OhykYB4SAIgAAIKAnYtSqzHy+EdBAQx+5Lkp5rmpkrC08u7ObAq5PeGOzqstIvuqIie7o70IHQ3ovPa9Us2bLCG+n//HPx/MG5HRhKGBB6/MJF1fbPP+nZz3UGZcvydg5wJEyrKUcLdRp3qwsOjPWiKdpryrGi+u2XNln0Px4Z56B+jhAO2PVY5+HB5GnmfFGduao9Qwl7b39QfzbNuS7SgAAIgEAjI2DPqix/8ucQByL0D7+lpamK+FVmh/sLTcyMkn0pevIg5/btnLynRV8qboV3E1DiUbFGlFPRr0yJR8a+qUVVqzNXdWCI65i/3hi0VUvvbvIXUEQ8NIYfSP4TNll+9FDXmrqyg3/4Dc2Dyg9enH13ZkE7hiJuUxPrdzz6D/qF00EABEDA6gjYsSqzbw8GiYmw15Zcw/qbUlF168oVz9Ii5gxp14RR9ywTxtHNVUz4GVgvDIXTHFWWF+4eIqIYv+DwXZEG244FvR0JRTdfmFZv+lhH+WM/5p6K3rx+Y2R8dokhlDpONvZ1ReGF/eHzh7V1JBRx7LE6HaJsjBKOgQAIgICagB2rsvTOxh4CSjza2MwltvhQkM58ZVnBofHeDCHilgNnhu2IPXo8MTH+730RKyb5u9M/oMrS2+HdBepWYyM7hDj13pqj226uDp7V71SdX9SC5nNFnLrMT3xRL0Jv9ZmGgyAAAiDwAwTsWJVleRF9hJSwv7H+U1nuH72EWv3K384v8qWJY+/1mR91mqNlDyP6Ck2qMm9DNGJ/LS3YyrHJoiG77n/4aGT79Kms4icrcuWHFwWFxV91cvn95as8LzkybPaIjk1oQpwDwjP1Rqt/v2GcCQIgAAK2ScCOVZn7dnZ+c5o4DIo0mMhcdWfTr9r9yrLHu/oLKdHAyAK9hupPZ+b7mqwrP1So/oDIglrqiBVpi7xp2nN64kcrKF/l2ZGjfESEIox779XnS+pJmTmOq8jd2k+MRUSsIMRwAQRAwNoJ2LMqc9+uruwkILTrwPD0dxq5lb45u/xXxQwhdb8yW3QwyIHQTcf99VxddWXL8lM2jPDme5mN9yuz7+LGOBC6+bxU5azpmqIgL3t6NTnl5tsaqa7I4H0Q91x9RbcWznFcdcndk1Frwvbq1c8brEiVJU6tGexFUUQ8LOalhsmPXlN6K7yrwNwXhPzoxXA+CIAACDReAnatyhxbemlVTydCEYFXrwkh4dsitq5bMq6HJ0PEzb09+WlJQxZvPZTxVs7JX/41xp2miLB578khYWGhC6aO6OohIEzTrt18GIpuHhA8c8HahEc6c5s4+au4se40cem1+K9Ld/Py7l5NObBp3jDFQiTC3ttVL7BiS/9Z6e9EiEvnCeGHUjNz8h7cvXb+eEzYtIGt+UcD4jwk6lEtle16LHrfzsxrpugF5juCncfGFddfZRnzlesxTjAFAiBgywTsW5X5RbJLruyc3KWJeskuwrh3mxxx6eHRSS78WGsiarvsIv9WC/m/aWuGtBCqxl8Txq3rhM2nn37KWNvdiSYUIaLWi87qDzGWvTkbpnUSb0/s1SNo4fZTOm+SYt9nRs8OaCZQGVeMj6IdfQLGL//zzCP+FdE/Z5MWJi4d1MpZ6NgiYM6h3HpcRITD2l4/J4K4CgiAQKMnYPeqrIigvOz5zfNJCfGJp9PvFZl+sxT79dWt86fi4xPP8MnMFcuKotz0lOMSSfzJcxm5b8pNNgtXvc+/npZ0XCJJOJl6OTu/xOwLNIJCWLMOdiesg90IggUXQQAE/ksCUOX/kr79XLssYZITIZ6zkjEK236CjpyCAAh8BwGo8ndAwykWE5A94qeQEefuM7YfSbv79mcti2KxnzgBBEAABP5bAlDl/5a/3VydfZs8v71I0XNOhH0iVGPd7Cb/yCgIgAAImEUAqmwWJiSqBwLyj3nnDu3cuGZtxKlHpjvv6+FCMAECIAACjZYAVLnRhg6OgwAIgAAI2BwBqLLNhRQZAgEQAAEQaLQEoMqNNnRwHARAAARAwOYIQJVtLqTIEAiAAAiAQKMlAFVutKGD4yAAAiAAAjZHAKpscyFFhkAABEAABBotAahyow0dHAcBEAABELA5AlBlmwspMgQCIAACINBoCUCVG23o4DgIgAAIgIDNEYAq21xIkSEQAAEQAIFGSwCq3GhDB8dBAARAAARsjgBU2eZCigyBAAiAAAg0WgJQ5UYbOjgOAiAAAiBgcwSgyjYXUmQIBEAABECg0RKAKltJ6MoL0pNPJl3OL2M5jn13L+3UydM3XldbiXOm3GDLn15LTb1awDtdH1ujhFAfGYcNEAABEKghAFW2jqJQfSW0LUPRPiEXqzjukyTYgaKEfSLyZCrv2M+3Dm9avWLFipXrYjNL60kEVca/97/8adQgEUUJB+x6rHb0e23x59UF4UdsW3yu9NPLh0/fm/1cJK/48PLxg9zcvMJ3FbWFx0KzHMeZa7n6/dO8p2+/SOvIaWXpy8cPH7/8UKuXOjZqd6CipCA3J+eu9paTk1tQUucbtGs3W+MBW1n6quDhwydFZfVSwnTyhQ8gYJ0EoMrWERdZ7tYAISXoFn5bynFVqfM8CSUOOvhWfX+XFcSOa+3mICCUwH9TTl133p+UJ+nNdV0ElMrrH79oXRB+/Ap1Wqh8k50SuyVk0uCOHkJCmsxMrktc2M8PTm6dO+wXTxGhFBtxHhNXrI5bzQUtNstxnHmWVTmqyN7Yy4FQRNg1/KaJ4lFZcGpNUIcmDO8ooZ3bBIYcvP1R31OVPTMdqLoU4ksrM67zl7hPTvhg3LZ5+ZKVZB1aGRzg40QruBJRs17TI68Uy7X8wy4I2CYBqLJ1xJV9e2CUmBIF7nku5zhpVlgnhrjOStGVBPZd3GixNaky+zE9Yub48bMiM8rqhaI5EOrlQqaMVGeuas9QFCFizxaeYkI5TD7+1VRaXrbKbsdM9HMgxMGnT/CS8MjYw/GJSWnZr3TDxnEWmrXAsso56cOoIZ4dO7cTUHTLpZerVIe1/stfSKa0ZIio9cjlkXHHJLFb5vRpytBuAzZlfjYmnuZmrfL0bDdCxK36BGltv/8+dsqKY/lG2hnMNMsWnZrTTkgI7e4/OSwqTnJ0/8Zp/m40cey1rp6KmhYZ7IKAlRGAKltJQCqSZ7oSx4nxX/g2y4LIgSLGb+U13fua1alyvaMzA0K9X1PHYNXL6ymn0+8Xfau8HtaRqV2Vqx/tH+1FC3xHbUl7UaljxeCDJWb5lnzzLSsuJX9xaEyz9iEnYsaITaly2dkFvjTtERT7RF2R/np3+yAXIuy8+to3fYfNd0ChynSLReeNPQl8t9nqjBXtGLpZUMwD9QMO++HcIj+GOAbufoL6sj5YfLYtAlBlK4ln9bVV7YXKbmVFx7KjsP/OfN2+tO9TZXn5m5z0M4mSo5LE1Kt5JXXohx4NuUwmlcmNVKZYuUyq2Ix+q7Qil8lkqq+r3z24nBwviU9Jv19i+gZuBgQ9BxvqY3Vdqix7GBXowjQdtUcjHGb4UqdZjuMstcwWJ87w9Qo+8vrD0fEOJlS56uISH5puOue0TtW/LGmmJ017TkvUbce2xAELVNkCs+znG4e27L2q2xFQnbmqA0Mcxx/9aAZoJAGBxksAqmwtsat4ejnxYr7yrsmW5pw5mfWvXqVArcpZBRf+DBkb0NbTUcCIXVv6j1qwI7VA536rzFTlk+TwMR1dlD1zyk5PQbOA2dGZ7/Uscxz7KTchfNqgjs14kx7t+gQvj7lwM3acC+Hbcx26rM3UqrbLHuwa6ExU3ai014JzBlIvf3FobFO+A5M49N2SlrLh93aONekp4txx6r6ccuPY64age56sOCtu0/IlS9fFnH9m4IRuUss+1SWfX84t8GVchsc8NSBZ63XqMstxnIWW2U8XQjq49I+4L+U+84MEjbdgK74SdAu/pa4p827Kcrf0ElK09+IL2g9KFjlgvipbZNYYROmNtZ0FxGF03DsjT4nGTsAxEGicBKDKjSduSlWmPfzae9JE2PzXcfNDw8L+NzuoiwdDaLc+q9KKtCWi8n7M7y0YIvAeHBJ96mrOo8d5N87GrhjmKyTEofPCFG3Jl71KXtLDmRCHlv2nLFkVtmrxpL6+YkKEIiGhmDbjNhw4fV9n7lN5buLOTRvCw9fPG+BJG23mZT9lRM0ZG+DNUMTJxYUhIp8+ExaErg6dPczPiR+S9MvKq0aeIiwNhez+jv5OSrUngg6h6QYtsZYa1KSvQz7LU+Y0Y5pOP1n65cX1pL+iIyP3xCVdf15ep1zUYZbjOAstf8ta7+/Y4X+X+Y6PL/ETTaly5dn5TWm6mV5duSp9WWuGokQj9r3WlBzLHFD2K7sOWhC2YMKwvj06dw0YPjXs4PW3OurPY7XMrCYQ6r2vV0I7McRhcFSBbguSOgF2QMBGCECVG08glapMURTt9duOLM30KGnRhTX9XPlew/1PVHcsWd7OAY6EaTXlaKFWLZfjqgsOjPWiKdpryrGiGg2RF8YGudO0V9Cfd9Xay36+tXNkM35wrbBvxEOVUX1UdWjM1+OTHSiKYnyDY+6o2kjZD2lLOjIU7TU/9cc19OORcfwFlFu9zc9S5LL2rElvrussEPWetWxkS7GqDYAiIt/h4WlvTMEywyzHcZZZrr6/Y6CL1ySJMpRfj08ypcps6ckZXjTtOebgM7V/bNGJaT6KEGv3lVjmAFeZOteDbxIRNu08KCg4OKhvG2eaEGHbyXG6g70sNKtf0riya2t6ignTdtE5VUkySIIDIGAjBKDKjSeQNapMN51YcxvWuC4riB7qTJjWIf8otU7ZB+c65q83mkpQTWrp3U3+AoqIh8bww70VOtBFQJyG71V+VNuUF8YMcyQ/rMrEKejgG+06pPR2eDcBJRqyu9DANfW1zdyR5UcPda2pKzv4h9/Qboc104SpZLWr8rfEqc78dWn3vkvjMgvff/7w/IZk1ZBmNHH8dd01vt5qYqvdLMdxlliWP4sNcnceuDOvpmJakTjFlCpznPRx7O9eNHHsNGHzkXPpV9Ik26Z2cyY0TRN+5P8LdSwscYAfmPj8xOr5a/7KeK0allX1KjU0wJkQ50GRmtn2luXLgJ30efz0NgIi6rzsvInZVgan4AAINF4CUOXGEzulKhOPmUmG9322JG6MIxH8siaLv0XLC3cPEVGMX3D4rkiDbceC3o6EopsvTONVTP5q73ARJey9XfseqmAiy9veW/jDqsy0X6U7lLzmgrVUwS2ICPsx91T05vUbI+OzS9SVQAvON5m0VvlkSw+PFVMU7TMjUWtAElt6blE7fpRwtOnO5lrN8jOizLfMvj0+tYWoU2i6uou+MnGqI+H7lStkMu3noJpMsmU5B+cHNBXUPMYwbv6zdq0NcibEdfopdXeCBQ6YZpf7R4CIMB1WaQYj/IBZedHZZf5OhPYKislVSb/JS+MLELABAlDlxhNEpSoLuq7PNui14zjFcg78HGd+0JP0dnh3gapp19h/Qpx6b1UsRiJ7GNFXSIkGRhlMOFGu3PWjLdhMx7DrOm3o8tf7RohqFXtriEjt8vklYZIjob0XndcdYVatmGfuMDquxIgoKnJVu1m+b9hcy/Ln0YEi4tJpaLB6G9+vpYAQR79+fTqOO6Tqn9CDyVYU5WacP5eWfvdVubzi0tLWjF7szXZAz7D2R+m9zT0Fut3V32lW9ub0Un9nQjcN3Jb1yRRU7UtjHwQaPwGocuOJoVKV6ZZLLxlpqv2WPMuN1KzYycnyd/YTUqIhu+5/+Ghk+/SprEIl7OyHI+MdieH0GI79mDjNk65VPuvQGEW/coOrcuWHFwWFxV/r+ZZde9aqM1b4MYaPR/LnewJFlGhgZIG6QVivdNVulp+qbK5l+RPFaqfGHrko4ljLg4HaI/Zjyhwfmoj66QwcMNsBtR3DHfkzvqlG50nve8xWFx6f29mBMN5BkdlGlzoxvDKOgIANEIAqN54g1vQrC7qH39KpffI5+Ja+3I8hLuMOK6tpFWmLvGnac3pi3XM75S/2/8aPv+65Kl0zgIxjSy+v9HcgPz7aq0FVuTw7cpSPiFCEce+9+rzJGup3hLgO+fx8aoYn7Tb1xCcd08o12ZyCJVogdRJwdZjlOM58y9/ePLh9K1try9wV5Ejo5lNjbzwq1q3E6zqh/PTl2hp/MaG9piZo1nXlvzHfAWNWFcfKzy7wponHzGR147rlZisfH5neXkSEbSYeeGDmuED2Y9rakf369O7du0+/CdH3VM+dJt3EFyBgnQSgytYZF2Ne1agyRXuMiMrVuVN9yf5jYBPCtF2c9rnmxIqMlZ0ERNxz9RWDMavVJXdPRq0J25up+qY8c11PR0IR507jVkdLkk8nS6JXje3oTPjNquvKZYlTawZ7URQRD4t5aaqKaoxm7cfqks8vF0PaCpyH7LqvabZgP6QuaMsQ5xH79MbNaV2pLrN8G/b3WeY4rvLUdGdFv7LGJ61La++ypTejxvgwhPaZdFQz0KsmhUUOsHKDNWYq7u0Y0oTQPnNTVAVMYdgSs/JXibP9hETcYebRAk1m2CLJZG+fOSmqMq6dI37/65m5imkDFBH2CL+lOU8/HT6DgHUTgCpbd3w03lWVvrgZESjiV/UghPHqv/jPU1dz8h7cST+xc26AB02aBIRd1hqhypb+s9LfiRCXzhPCD6Vm5uQ9uHvt/PGYsGkDW/NTfInzkKhH6vFR0pcpof08Fa8tqGkSJc6dZ0WsGGzQAVz19Fz0lg0bwhWbcr6yoMuktcrP4Rs2/rH/smLY97e85KgNk7sKKNpz4ILNMRdeKK7FfrwliVg5uh1DMb4jlm0/nPX+hxqev52Zp7wN869bcB5r+FIIDT3z9tjSbMmuLRs3bKiZiq3I2oYNGzdvjU55qPMcxLFFyfPai4Stg9YfuXTnwYOb5/Yt7utBE4eeazIMxuJZYJYf8WWBZWW22M93JBEbN6yb0o1/o0af2Zv3XnihX1PkX7709NH9W+lJBzbPHaSYjt5y9J+31HPhtACZ7QD7PnF6C2ffPhOXR8Sdybh9P+/eteTokAFeDBG2nXnild4zkvlm30ometL8g5a7T0vtrXkTARH/Fvuv8UJTnbm6A8MXX9pzgkS3/q+VOeyCgNUTgCpbfYgUDsoeRQ1RLtJFmgRv3b+wt2osLS9Igma95+3P1qmZ8Cex7zOjZwc0qxl0q5RbQjv6BIxf/ueZR/r3Y9n73NOxW8OWLl78v7U7DqcXfpW9iBkqooT9tV/TyP57dJKXjkHdjk0i8F5wppyfMHNgjKdqtC8Res9NVlRwpHe2BNS8BIh/a5F/eJZBU7xF4ZAWJi4d1MpZ6NgiYM4h3eYDi+yoEkuzN/dy1loKTZU5wngExRrM5Kp6cjJ0iLdQNWGZiHyHrjnzUl8O+cF3FpnlOM5sy0rHpTlbezuqFlujCBG1nJesWxqqM1a11zjKNOkwMmT/NcOlPlQczHVA9iJl9ch22ovH8Y9H7UdvSH1hNLDm5YstTpzr56T9jKiKA0WEfqFXjNeClcMW+V9D17VZdTfgq7OKHRCwNgJQZWuLiHn+sN/+vZd+OjE+PvFMem6tvYhV7/OvpyUdl0gSTqZezs4vMfu9uooVDinR8L36lR7zPLSTVFXFuXwcjidfuldkNlqz2NSr5cpXWSkJkqOShKS0zLy35jlqpgNsRfHDrIspicckkoSk8zeffVY3wRjPpplmjZ9s8ihbdDCIX9WVuI+LM5ykb/I0fAEC1kcAqmx9MbEOj75cXdlFQPGvA0LFwzoiAi9qIfAlaSa/yJjgl9WZmNVcCyd81QgIQJUbQZB+iosVj89Eb4vYHfu3RHI4dueqSf7uNCGOAZuycZP7KfxxkR8hUH0ltA1DEdffD9bjkL8fcQjngsB3E4Aqfzc62zqx6p8QX35RZPVGxK1GrDv7ykg3qW1lHLmxBQLy5ynh1+yLFQAAFzRJREFU04Im7bqpOybPFrKGPNgdAaiy3YXcRIbl726diP5j/eqVq9Zs2L7nyLm7RWi5NoEKh0EABECgwQhAlRsMLQyDAAiAAAiAgIUEoMoWAkNyEAABEAABEGgwAlDlBkMLwyAAAiAAAiBgIQGosoXAkBwEQAAEQAAEGowAVLnB0MIwCIAACIAACFhIAKpsITAkBwEQAAEQAIEGIwBVbjC0MAwCIAACIAACFhKAKlsIDMlBAARAAARAoMEIQJUbDC0MgwAIgAAIgICFBKDKFgJDchAAARAAARBoMAJQ5QZDC8MgAAIgAAIgYCEBqLKFwJAcBEAABEAABBqMAFS5wdDCMAiAAAiAAAhYSACqbCGwhkpeXpCefDLpcn4Zy3Hsu3tpp06evvG6uqGu9qN2G5e3P5pbnA8CIAACP40AVPmnoa71QtVXQtsyFO0TcrGK4z5Jgh0oStgnIk9W60kN9iVbcnV/+KoVoaGhK1aui80sZfWuZFXeSj+9fPj0vdkPMPKKDy8fP8jNzSt8V6GfL3U22crSVwUPHz4pKqsrApWlLx8/fPzyg2lbHFf1/mluTs5dgy0n5/6LT7VdoK6sVZQU6BvOycktKKlQZ0S9890+cFw9E1O7hB0QAAFjBKDKxqj8/GOy3K0BQkrQLfy2lOOqUud5EkocdPCtSdloWA+lt7YN9vVo4uwgIJSg+wbeJ53NCrytfJOdErslZNLgjh5CQprMTDaiRDo+s58fnNw6d9gvniJCKTbiPCauWB+wrCTr0MrgAB8nWpGKiJr1mh55pViuY0r5obLg1JqgDk0YPiGhndsEhhy8/VHfHsdx1VlhHRnlJQ3+0j5L+Mcw3c3crFVdCvGlDUxSFHGfnPBB1xGLfeA9qndiutnEJxAAAaMEoMpGsfz0g+zbA6PElChwz3M5x0mzwjoxxHVWSl1K07BusqWHx4mNqvJ/7m115qr2DEURIvZs4SkmlMPk419rgcGW3Y6Z6OdAiINPn+Al4ZGxh+MTk9KyX+nxZYtOzWknJIR2958cFhUnObp/4zR/N5o49lqXUaZrXv5CMqUlQ0StRy6PjDsmid0yp09ThnYbsCnzs64ectxnSbADod1+GRKkuw3q4EKMtIeYn7XK07PdCBG36qNt9/ffx05ZcSxfr+nAQh84rv6J6fLDJxAAAVMEoMqmyPzk4xXJM12J48T4LxzHyQsiB4oYv5XX9O6tP9kl06rM/efeVr28nnI6/X7Rt8rrfE20VlWufrR/tBct8B21Je1FZW0MqzNWtGPoZkExD9RyzX44t8iPIY6Bu59o15fLzi7wpWmPoNgn6maEr3e3D3Ihws6rr33TvUbVjYhRAUFbM3UfG+Qv9490FPbcfE9tQHWW2VlTqDLdYtF5g9q2ypT6v4U+NAAxtSvYAQEQqJ0AVLl2Pj/t2+prq9oLld3Kio5lR2H/nfkm+hzl5W9y0s8kSo5KElOv5pWYUBq5TCaTyZU1t+p3Dy4nx0viU9Lvl9R9D6/JdC2qbIm3DYuwui5Vlj2MCnRhmo7ao5FaUx6xn28c2rL3qm6zdnXmqg4McRx/9KPmtKqLS3xouumc0zpKW5Y005OmPaclGmvH1pys2JM//XOIWNBj4x0DUdYkrCtrFqiyxqjWnikfGoKY1mWxCwIgUCsBqHKteH7ilxVPLydezFfe5tnSnDMns/7Vrp3VeFL5JDl8TEcXZa+nsntU0CxgdnTme+3E8heHxjblOzyJQ98taSkbfm/nWNOZShHnjlP35ZTrZ0xWcjMubMrAjs2chYzIpUXnwBkb4nOexploweY487ytuYqsOCtu0/IlS9fFnH9m4hFC3x+zP9clXV/OLfBlXIbHPNXmY7Z1juOkN9Z2FhCH0XHvNE3TfIMwPwjglo6mynK39BJStPfiC3U++MgeRvQVGhjQc6uurP2gKpvyoUGI6WUNH0EABEwSgCqbRGN9X1Tej/m9BUME3oNDok9dzXn0OO/G2dgVw3yFhDh0XpiiUXH2U0bUnLEB3gxFnFxcGCLy6TNhQejq0NnD/JwIRYS/rLyqXcv7em9/cBshIS7th04PWRW2KmRaoJ8LIU5t/bwZo/3KFqGR3d/R30n5UEAEHULT9Rp4LbJlmLgO6SpPmdOMaTr9ZOmXF9eT/oqOjNwTl3T9eblGYA0t6h75eiW0E0McBkcVaDVcVJ6d35Smm+nVlavSl7VmKEo0Yt/rOh4BZPe2/CoQdF57U0fVdS/McXVkjVP2K7sOWhC2YMKwvj06dw0YPjXs4PW3tRpVX8SUDw1DTH1Z7IAACNRBAKpcByDr+VqWt3OAI2FaTTlaqNPfXF1wYKwXTdFeU44VaavN1+OTHSiKYnyDY+6o2lTZD2lLOjIU7TU/VSWO7McLIR0ExLH7kqTnmjpeZeHJhd0ceC01NgbbIigfj4zj/VBuwgG7HmvJm0WGjCauXbqkN9d1Foh6z1o2sqVY1VpAEZHv8PC0N+a4UXZtTU8xYdouOqciqHCCLT05w4umPcccfKa2whadmObDD4mupeuhJgfS7PVdBUynsCydOBpkr/ascVxl6lwPvj1E2LTzoKDg4KC+bZxpQoRtJ8fpD/YyMM1xpnxoIGJGPMAhEAABowSgykaxWOFBZf+m65i/3hhUxKR3N/kLKCIeGsOP4FZtClUmTkEH32hrtfR2eDcBJRqyu1CZVP7kzyEOROgffku/bbkyO9xfaHxmlOoSZv2X5UcPda2pKzv4h9/QSL9Zp9eRqHbp+pY41Zm/NO3ed2lcZuH7zx+e35CsGtKMJo6/rrvGj6yrZZM+j5/eRkBEnZed15toxHHSx7G/e9HEsdOEzUfOpV9Jk2yb2s2Z0DRN+IH0L7TCYHiBqmurOjBMh5XX6iBRe9Y4Tv78xOr5a/7KeK0am1b1KjU0wJkQ50GRdc10N+lDgxEz5IAjIAACxghAlY1RscJj8sLdQ0QU4xccvivSYNuxoLcjoejmC9O0bvQKVWbar9IdyS1/tXe4iBL2jXioqOWxbw8GiYmw15ZcdaVPnXllP+kP15U5jv2Yeyp68/qNkfHZJYaXUV/vu3ZqlS629PBYMUXRPjMStYZwsaXnFrXjx1VH19LZLC86u8zfidBeQTG5KtXTcZAtyzk4P6CpoOZ5g3Hzn7VrbZAzIa7TT2l3D+icxH+ouLSsDcO0C72qFSuDRPyBWrNm9AyOq879I0BEmA6rMmuth5v0oSGJmXAZh0EABHQIQJV1cFjvB+nt8O4CVTuwsf+EOPXemqPVp6hU5Y5h13Xuz/LX+0ZoqbL0zsYeAko8Ou69doVaiYEtPhRkfL6yFWGqXbq+JExyJLT3ovO6DQHVignhDqPjSgxzzedN9ub0Un9nQjcN3Jb1yXiSGkQVRbkZ58+lpd99VS6vuLS0NUOJBkbpTKLSZ1V+boEPzbT5X7quS/rJvlOVOem9zT0FdfVt1+JDQxMzkk8cAgEQ0CYAVdamYcX7svyd/YSUaMiu+x8+Gtk+fSqr0FJkPiNmqbIsL6KPkBL2N9bbK8v9o5fwx/uVFVArP7woKCz+WpvCfR/82lW5OmOFHyPouj5bl438+Z5AESUaGFlgpKm5uvD43M4OhPEOisw2WBLEtJPsx5Q5PjQR9atphTCR8nPyLC+aaRXyj9EKuM5JtWdNJ6nmg/wZ36ZS+6NBbT78RGIap7EHAiCgIQBV1rCw7r2KtEXeNO05PVFr3mytHpulyty3s/Ob08RhUKTB5OiqO5t+rY9+Za48O3KUj4hQhHHvvfq8iepprVmp5cs6pOvzqRmetNvUE590TCgXT3MKlhis8F35+Mj09iIibDPxwAPVeDidU019+HJtjb+Y0F5TE2pbJpUtPT7Vg9C+i8+bYbyOrBn3pPzsAm+aeMxMNpj8pkpfhw8/jZjKH/wHARDQIQBV1sFhzR8qMlZ2EhBxz9VXdMYD8y5Xl9w9GbUmbG+m9jfmqTL37SpvlnYdGJ7+TlNzlL45u/xXxXymH+5XLkucWjPYi6KIeFjMS81V6gF3XdL15WJIW4HzkF33Nb247IfUBW0Z4jxin/bgOH5NtVeJs/2ERNxh5tECreRFksnePnNSPpv0li29GTXGhyG0z6SjtQ70YkuOBrsS2mdhWq09zzUXqitrrLxmjRiNYxX3dgxpQmifuSnaJUHzPb+6dV0+/AxiOh7hAwiAgDYBqLI2DeveZ0v/WenvRIhL5wnhh1Izc/Ie3L12/nhM2LSBrXn9JM5Doh7VDKb6lpcctWFyVwFFew5csDnmwgvl0K6PtyQRK0e3YyjGd8Sy7YezFJ3JbOmlVT35acwCr14TQsK3RWxdt2RcD0+GiJt7e/IzroYs3noo4+13a+m3M/OaqV6iQJzHGr4R4juos6XZkl1bNm7YEL5+3gBPmhJ0mbQ2fMOGjZu3Rqc81K2GskXJ89qLhK2D1h+5dOfBg5vn9i3u60ETh55rMnTHYLNvJRM9af7Jwd2npfbWvImAiH+L/Ve7+Z1/qdTTR/dvpScd2Dx3kK+YEGHL0X/e4t/DaXpj3xwMciZ0i/mpJiuyHGdm1tj3idNbOPv2mbg8Iu5Mxu37efeuJUeHDPBiiLDtzBOvTEbLDB8ahphpLPgGBEBAmwBUWZuG1e+z7zOjZwc0qxn4qxz0RWhHn4Dxy/8880itCfLnB8Z4qkYHE6H33GRFRU96Z0tAzcuQ+Lcc+YerJszKS67snNyliXrFMMK4d5sccenh0Uku/BBjImq77GLd/aCm6EkLE5cOauUsdGwRMOdQrq5mmjqnjuPS7M29nNXuaga/EcYjKLZmzpfGRNWTk6FDvIXK0dJ8dnyHrjnzUrermePY4sS5fk6KV0BpDNYgFvqFXtHUnrnqjFXtNeaYJh1Ghuy/VufqHfJX+0c6EtprToru44DGUX7P3KzJXqSsHtlOe5U3/sGs/egNqS90hvfpWjfPB67eiel6gU8gAAKmCUCVTbOx2m+q3udfT0s6LpEknEy9nJ1fUtu7fc3PhLzs+c3zSQnxiafT7xV9vwabf8Gfm7KqODf9dGL88eRL94p+GFjlq6yUBMlRSUJSWmbeWzPNsWV5aZLDkstPtfT9BxmwFcUPsy6mJB6TSBKSzt989rmuiWeW+FCvxH4wozgdBOyHAFTZfmKNnIIACIAACFg7AaiytUcI/oEACIAACNgPAaiy/cQaOQUBEAABELB2AlBla48Q/AMBEAABELAfAlBl+4k1cgoCIAACIGDtBKDK1h4h+AcCIAACIGA/BKDK9hNr5BQEQAAEQMDaCUCVrT1C8A8EQAAEQMB+CECV7SfWyCkIgAAIgIC1E4AqW3uE4B8IgAAIgID9EIAq20+skVMQAAEQAAFrJwBVtvYIwT8QAAEQAAH7IQBVtp9YI6cgAAIgAALWTgCqbO0Rgn8gAAIgAAL2QwCqbD+xRk5BAARAAASsnQBU2dojBP9AAARAAATshwBU2X5ijZyCAAiAAAhYOwGosrVHCP6BAAiAAAjYDwGosv3EGjkFARAAARCwdgJQZWuPEPwDARAAARCwHwJQZfuJNXIKAiAAAiBg7QSgytYeIfgHAiAAAiBgPwSgyvYTa+QUBEAABEDA2glAla09QvAPBEAABEDAfghAle0n1sgpCIAACICAtROAKlt7hOAfCIAACICA/RCAKttPrJFTEAABEAABaycAVbb2CME/EAABEAAB+yEAVbafWCOnIAACIAAC1k4AqmztEYJ/IAACIAAC9kMAqmw/sUZOQQAEQAAErJ0AVNnaIwT/QAAEQAAE7IcAVNl+Yo2cggAIgAAIWDsBqLK1Rwj+gQAIgAAI2A8BqLL9xBo5BQEQAAEQsHYCUGVrjxD8AwEQAAEQsB8CUGX7iTVyCgIgAAIgYO0EoMrWHiH4BwIgAAIgYD8EoMr2E2vkFARAAARAwNoJQJWtPULwDwRAAARAwH4IQJXtJ9bIKQiAAAiAgLUTgCpbe4TgHwiAAAiAgP0QgCrbT6yRUxAAARAAAWsnAFW29gjBPxAAARAAAfshAFW2n1gjpyAAAiAAAtZOAKps7RGCfyAAAiAAAvZDAKpsP7FGTkEABEAABKydAFTZ2iME/0AABEAABOyHAFTZfmKNnIIACIAACFg7AaiytUcI/oEACIAACNgPAaiy/cQaOQUBEAABELB2AlBla48Q/AMBEAABELAfAlBl+4k1cgoCIAACIGDtBKDK1h4h+AcCIAACIGA/BGxSldlP2X9vXrt+656EzFeV9hNL5BQEQAAEQKCxE7BJVa5OX96GofiNdhuwLftbYw8S/AcBEAABELATAjapyhz39eXN1LgNY9oKCXGbcryUtZNoIpsgAAIgAAKNm4CNqrIiKPJXe4eLKMZvZUZ14w4SvAcBEAABELATArasylxl8kwXQlxmJKFz2U6KM7IJAiAAAo2cgG2r8unZboRymJTwtZFHCe6DAAiAAAjYBwHbVuUzczwI5TAxvtw+golcggAIgAAINHICNq3KVZdCWtKUaGjMC3kjDxPcBwEQAAEQsAsCNq3K8mfRgSJCHPv9cRezo+yiOCOTIAACINDICdi0KnPyNydmtBIQQnv4T1i+/fD1IlkjDxfcBwEQAAEQsGkCtq3KHMdV5O4Pbi0i/JIigh4b70htOprIHAiAAAiAQOMmYNuqzBYnz/cTEYo4tRs6Z23MxRcQ5cZdXOE9CIAACNg4AZtWZfnLmGFiQkQ9wzI+YXkvGy/JyB4IgAAI2AIBm1blqstL+THYQ3YXYgy2LRRW5AEEQAAEbJ6ATatypWq+8hebjyMyCAIgAAIgYAsEbFuVsbaXLZRR5AEEQAAE7IeAbaty8swmWAfbfgozcgoCIAACjZ6ALauy/PU+xTujVuCdUY2+nCIDIAACIGAfBGxTldny59dTDoWPbSckxHVSPN6vbB+FGbkEARAAgUZPwCZVuTr9f60Zft0QijTpuzkLb4xq9MUUGQABEAABOyFgk6rMfsr+e/OadVt2S64+xwLYdlKSkU0QAAEQsAUCNqnKthAY5AEEQAAEQMAOCUCV7TDoyDIIgAAIgICVEoAqW2lg4BYIgAAIgIAdEoAq22HQkWUQAAEQAAErJQBVttLAwC0QAAEQAAE7JABVtsOgI8sgAAIgAAJWSgCqbKWBgVsgAAIgAAJ2SACqbIdBR5ZBAARAAASslABU2UoDA7dAAARAAATskABU2Q6DjiyDAAiAAAhYKQGospUGBm6BAAiAAAjYIQGosh0GHVkGARAAARCwUgJQZSsNDNwCARAAARCwQwJQZTsMOrIMAiAAAiBgpQSgylYaGLgFAiAAAiBghwTMVGXFG4vXrt+6JyHzVaUdYkKWQQAEQAAEQOAnEDBTlavTl7dhKH6j3QZsy/72EzzDJUAABEAABEDA3giYqcoc9/XlzdS4DWPaCglxm3K8lLU3UMgvCIAACIAACDQ4AbNVWeGJ/NXe4SKK8VuZUd3gnuECIAACIAACIGBvBCxTZa4yeaYLIS4zktC5bG8lBfkFARAAARBoeAKWqvLp2W6EcpiU8LXhXcMVQAAEQAAEQMDOCFiqymfmeBDKYWJ8uZ1xQnZBAARAAARAoOEJWKjKVZdCWtKUaGjMC3nD+4YrgAAIgAAIgIB9EbBQleXPogNFhDj2++MuZkfZV0lBbkEABEAABBqegIWqzMnfnJjRSkAI7eE/Yfn2w9eLZA3vI64AAiAAAiAAAvZBwFJV5jiuInd/cGsR4ZcUEfTYeEdqH6CQSxAAARAAARBocAKWqjJbnDzfT0Qo4tRu6Jy1MRdfQJQbPEa4AAiAAAiAgL0QsFCV5S9jhokJEfUMy/iE5b3spZAgnyAAAiAAAj+JgIWqXHV5KT8Ge8juQozB/kkRwmVAAARAAATsh4CFqlypmq/8xX4QIacgAAIgAAIg8JMI/D+z7dJLwah6eAAAAABJRU5ErkJggg==;" vertex="1" parent="1">
          <mxGeometry x="182.32" y="316.40000000000003" width="247.68" height="107.19" as="geometry" />
        </mxCell>
        <mxCell id="NCOwUVDB0enq9Q0JQrQG-15" value="" style="rounded=0;whiteSpace=wrap;html=1;" vertex="1" parent="1">
          <mxGeometry x="170" y="240" width="530" height="60" as="geometry" />
        </mxCell>
        <mxCell id="NCOwUVDB0enq9Q0JQrQG-16" value="生成时间戳" style="rounded=0;whiteSpace=wrap;html=1;" vertex="1" parent="1">
          <mxGeometry x="290" y="240" width="120" height="60" as="geometry" />
        </mxCell>
        <mxCell id="NCOwUVDB0enq9Q0JQrQG-17" value="日期选择" style="rounded=0;whiteSpace=wrap;html=1;" vertex="1" parent="1">
          <mxGeometry x="170" y="240" width="120" height="60" as="geometry" />
        </mxCell>
        <mxCell id="NCOwUVDB0enq9Q0JQrQG-19" value="" style="shape=image;verticalLabelPosition=bottom;labelBackgroundColor=default;verticalAlign=top;aspect=fixed;imageAspect=0;image=data:image/png,iVBORw0KGgoAAAANSUhEUgAAAV4AAABvCAIAAAArGD/xAAAgAElEQVR4Ae2d918T2bvH7+/rFjM1CUkApQgKiKCiqOuiK8KuYsEK1hV1bYhYKGtbEVRkrTRBEFBpsoqCIk2qKAgICFITQmaGvfd+799wX0NCSC/ASLKe+QFmJpNnnud9zvmcMpNz/osCmxYCpLgrP2gWB4FYLBYmcDhT8T9aLgSnAYF/IYH/+hfGNIkhDXZWZ8Vejjh58s+HZT3Dk2gYmAIETJwAkAYTTyDgHiAwNQSANEwNd3BXQMDECQBpMPEEAu4BAlNDAEjD1HAHdwUETJwAkAYTTyDgHiAwNQSANEwNd3BXQMDECQBpMPEEAu4BAlNDAEjD1HAHdwUETJwAkAYTTyDgHiAwNQSANEwNd3BXQMDECQBpMPEEAu4BAlNDAEjD1HAHdwUETJwAkAYTTyDgHiAwNQSANEwNd3BXQMDECYxfGkiyvz4vJSXtyeuufyiKaC9Jv5+aUfCeMPGAyc6awszMnOq+SXHUTCGYeBoB90yBwPilQdL99oQHjLAFu3L/Q5L9D7d8C0HQwqjmwdGwyLbypIiQkJCQ42fu5LaZyDwo4tYoDzYMw2vDqvslo56O/79eCOM3bfw3/xF9elde0yT8x8CvSnqb370pff26vLplQIdQGmuWoigDLQ8PfKwpr3nfNaTb4X96mxvelFU2dHQThk6ZoduBgeaK0lfKW0lJSXVbD0nq9kS3Wel3hyV9HQ2VFRU17zonIYPp9ofRT8cvDUR/yzWv7xC+3ZFX/6Eo4bN9GAqh3rfGMpmkPHHXXCsBzkL4dsGl/2E0DIONi6pOOWIwjKzYX9qjJ0caYlMvBEOMTPAa0bu/s+LCjges8rRDUJTjn/G/egxKempSzhxa4+ZgwZJumL3HzXeqpcJos7QkGGR51D1hVdg8CxRC+fZHiv9v9KTy/+53j0/6LLaGIBZrOozw3dbvu1nVriPdDHBA8rnu8HxYFrnCPwhlr0sZ1CyRBpilo28qTAzZ4O1sgY6Yh3g2nntuPGoxVKmVI5/6o/FLAynuSlk3DbGac6lmmKJEFaH2bIS7KVMpX5JD3ekbvjElaSB6807/tnVrQHRJF6E5GxiVJoZAMMqgsRcTPQ1nFtNT1LF4Ns72HARC/VJ1NdCI9oq72xy4CMJ1Wb35yNlLf8UnpqZnFjWrVJjGmqXoLqVBluUBSkpurrPzXOLOQtiCPU801ByEqD0zYCYO47M3hP95515yXMThFZZsjL/0bGWHpvrYQAeGOqsCnXFYYO/l779Rvvn7b9px+kaVhlaJgWapt3mH58MQhFgt3xcSk5CQEHth5wJrHOWuCs5vN0t1GL80UJTwyS4WZjv/fssQRYlbLnkIOLZBhSYuDfKcOVk7+iFM1p202BE2Pr2Xll/5rre/ItQeh3Ed0kD2NiVt5GPcmavPP6vp+28tBqWnjTBLUZQxlmn7hKg9daPF7GO58f7TtEmDMD3Igcu13BJX0y9r0Qx31l73RlGe3cFC1TJsuANSaUDdfn3ySd731UrCcLNkbpgLjztjc9zrbplv5FB34QE7NsxZfq1dPKzqsNZbmswHE5KG8hBbrvv6ghHEojvrZ/KdI94oCeQ4Ww3izx9eZWem3L2bkPqgoKpRTyZWYSkeHBSJhjS0CIihQZF00/Sp1MrQ4ODgoOxjccvLJ2kJ8UkZOWUd/So3GTsU6oUwdi2ze0J90iB6H7XEFrf1jm1UaSPo9EuvWYqijLVMdCVvdpvjF/e+I2vzt1qkQVj0Ox/DeFuzlHKU6F6gDZvN/+2BcrfCCAeMkQYjzBJtZXf+iHvcolQ1EnkRrnwOuvPOJ4mmdo5O7lP+4USkgRJVZyXn1HePDN4Mt5ZkphY3iZS6rHJpOP7i7d+XgwK8nB34KMqzdVq+de+l/PIe9aav8H3ascCFst6atCeIzv4x8FpZi1iVFdlWnh62dc1CG0scZdt7LN9+OirnZfImFsRiIQjuEl6lUJ5Fb/9cyEdRmUGcH/BYKQll9Zg/F4dZEIItulCYE+Yz31LWE4UQ3GVXUnGXure0S3ohqPhNND1LiDx8+GhE1OOmPpXPJnSopwwTbaW/u6MW/tH1A0ZlUz1maXRGWpa0vgpdyF8c1ThA9TzcolkapAPbCN/uKD2SNbaRRbGLrTHUfa20QpJ+YJQDhkuDUWbHXFTYI5+ccxfgyPa4VrFSuVC4xHR3JyQNesOSSgOEWcxfYIPCuJ3Xzv0hZ04H79622BqDESvv0PsfFOsEYf3VVbO4GDJ31f6rWXklVVXlT3PiDvk7jxT1Q08VdUdS9/DkEhxB8NmrfzsUeurUoa2+zhgMYxYcFsy1XhcZn1I2NiBKUdRAyZ3LkeHh4WFHvS0xCFNvdZND3S+jAgK87FEIsbS2xmHc8ec9+0NOhf62eoHVdBaMzjlZIRVBvVHruIDob/lrJT2oxmKxUJ7tvoJJbGfqKcODqbsc2A4b0wZ76vMybkVfvnztZlpx1We9DugxS1GUkZaFFadd+J4789qH6fK/TVuHQvgsCMdxgUqrgXh8womHodbOMfVjDUOjHJCNNdh7BJ0KClzrtXzxkuV+e4/dLHkvUkVhlFlNiS58fcyBDXOWXWnT33XR9P2pPfclpIHFYsE4b1VUZdvQqHYOtBWGeljjuOWWuNrRh4jEqxsrbXFkvt/1eqVEGixP3OoEwzhvQ3KvNDsQovZ769k4Llh9pa5DIrNJtpX/tZaPQBAimBVWqbmGpyg9GV0Sv5mDIBDH0u967WiTlficud+Vj2OuPtmjp8adZmRT4ZpZXGlrBIIgz+hJzDS6QxNVnXKwsHTaHew7lz82Po+7+gY/7tCZcXWbpZtNRlkWF8eutnH2S+oZSUph9nZt0kD0Jm+zZbOttt2qHxhNYnFX9g4rBIJQgaNC19U4B4Y6q3bNxem1RRyWrPYPCNjotcCKBcOY4870N0qtOOPMqmeJvvzTntYYsmhTRutotle/yITPfAlpgCDIcte9ZuUHQ+RAa8IvMMqx3p0vbTjQnXY2wl19p0dtzEZUF+6MQSiy8UKDkG4MkwUX5lty2P5R0kM5XqLi3mo79gSlgYvg+NbYpsGxVrekt/HisumI1ZyLNYptHPltjdghBlrif8GkrQbE2ulIke6xQCMs61M9YU7gDxCLBWEWS4/dz69r7/xYXZJwyM9xOjLD5UihjueBeqXBCMtSTbdYE1nZJ8UrzAn4RstYA0X2N99bz8dgtmtA9O1HBQWPbkfvcBOgbBSFEas5UbVyOEY4IO05Zp7Ye/x2cd3oGJao/mHETxiC4EtiPiiopHFm5d5IdyTVD/a7sRDBrL05/WPNG5WLTPvwi0gDyt70QB0D0XtjNQ+xcAqrEY4MWd/1mQZzrTdEXLmstl05sIiHwug835FRZfGnq0vZMHvBpbHXq6TWif6W617fTVAaODDH4dQbhXEKihR1JK2ZptOsenRazwx/LM2ICQuLvHK7uFMhI2q93uAPdJVhcqg7w/8bCIJs9z1qEcvzKtGTEeTMY+MbLmgfgNBllpZpIywTXYkb51nM21cgd0CYGzgNwwW7n/z34KCGqpXsqEwKWmTPRaTtLNTeY0f0qbUOOOa4LOujbPDJGAe0shQXXV0yg40u3VH0WaaSEzFLNuSHLUVRnO99vcGYEV+t7k3JB19CGmCejcZ3WoiHwQ5cNn7gYR/9/lzjxWU/SHOAxr/TYZjrE1reO0RRosbz89kw2/OK6jMhQtR+x3sSpMHxTLWSNAx+Sl47adLAWDLrKsMk2f9o27cozg/MUepqET0NEZ7TcRu3W2qvPI36qcssLQ0GWyZE7fG+0yCbub7bt2+TbVt/caEHkuZ5/+y6LVmlXTnqADHQWPT00cOs/NLaz+TQw2AnHob4RdQNjJZhgx0YNajhP9H3IXr5d4pDGIbHpWJO8jbnzDIcwXg/Xaxsl/egVS4yh8MvIQ0IW7A7X2mcWUpGcm+XNcaZEfyyn6KIgZYbK79BrOaEV3S3adg6Ojr7hDKgRP+tNRYopvYEixr6UBjojOus3vVkdHqsAeYwLQ0DrTVvalu65HXn5GQU3aEJS4Nncniq7x0SovZE328Rqzl/VClJhoJHus1SFGWoZXJEuDXqPt3z3/5Xi3isE6fgwNguOdT9ZK8AhfFFSg1GQx0YM6S2R4ja7/rQ7++dq5J38cZjVlyVeswDRjiWPjHVGt/LUruz6Z74EtIAQZBrZL1iPTzCQ/jqqA0b5vgmSB8lCJ8f4GEYb+N9taeUavSIqvRfZ+GItdOBgrGOHP2I4birBTrhYUgmpYEk+ysurXTiQSwYtfY+kd4iz4hqQRp9Qk8ZFiZvt8Pt1t9XKn6S3sYIz+mY7YLEJqXzCjfXY5bWBoMtD7x/VVz0/MXY9vdf679Hcb7/jfIy1d6hgguju315pz2tcWTuqrvvlQaqDXdg1JLqf7Kt/IAbjDh5ZX0c42CsWVF5wkF3COHZrLv13sB+BNFcdM7Pa+WKFStXeq+79na08lN1b0qOv4Q0sFgsZPayyLIx6BRF9T07720Ho4u2PPwoC1yce3qeAMd/PpzdppTwFEWJm58/uHw8OLZE+oiAJPvLTrnyUBiaOXf9qRvx6ZkPEi6Hb3bhoygMw6bcaiBaXm51YktrTgjBfrrerTbmOu5soK8Mt5UFL0As1p0v65H36onu9D3OPDZnU4zKgK6CE/rMUhQ1Tsu0quTt/B7DNb8oreADPXrYVXgu0IWF4QK/pE+q0IxxYFgiHlL9mZaw7uISS4w982C+0jMoY8yStQ8Pz4dggcOWxA/yWpAUd2Vut5x5IK9Ty1v5Q/f32rDpkRSUb3/0lbaGmzKJL3XEqDQIP9X/fd13Gv3wEobhOcv3XcnKL6mseJmTfmnHKrsfIDv335+M/TiaHOouOu7KQ1G+586Tt7ILSirKXxXkJkeH71rhbkkPQ1isO1/VN9rDHGjNDV5kx5G9xcRisSAEd90XG+HzvYo0kL1NuTHhERHhIxv9XgMKoe47zkmPwyP+iIgrbBQRFCWsTTt/IXAeBmFWviHhsU/fCkeKUOvrlIvHAt2+hziWPsExcc8/T6QfIOmo3OtKPzmTOux7V+nli3EkOjnUXRp/7mxkeET4mbHQIiIiz16IelCvXHcRn+4HuAt4jv5/3swrLSt7lhu7x8eehVg7/f5MtaVmjFm63BpuWRajpKciPjIy4vS+Jd+jKGfZvkuXs5tV6sxhSV97Q9Wb0hcFadf+DPJy4UOIhc0vV6vlj6sVcBnqADnUnb2Tz3fx3XI85kZm4YvS8rK/U24cXmbPQXGPTbffqRROg82KuzK3shEIYvFsnOYqbg4z2RC8JUbLMIqw4oQdCtGbYGdSs8JDMYXQpmyXQWkgXt9ebUc/qINR9oaLt497WeHyB+owarMy+HLxmC5IAZBD3SUx21bPkr0UJC1CCMp1XLnrUEzuyMQQiqREHa+Tb54LOXro0NHT0TeeNHaJmhJ+mYYKHCMV3tcm6x4HOrOlzwulBlX+st3WPvxIEKL2lI3025As+kd+MMdtzYMWWhrIwuifZuLSr8MYd16k4kuWis4YuC9qurfbb64FWzB7SVBqSfdEn4ZKehtjlmPSn/opxQWjllvi3o4861XwTPg+Zd+GOWN4cVffo1ntKmVy5FfVRpml638DLUudIfo+xHpB8Gh+gGHM9mCBUo1NCUtDbNiILN1gnDdv/cnoZ53qro5GZ6ADopb0g5vdlF63pd923RyV0iBvTI2apP8bZJYQd2X/Zm8peyqtlA4sGJ11olzejlA0TfS3xK2gK06UZ3vohWpLWfHKKdlnUBpU4hmW9DWXZGekJCamZGWXtim9XaJ86T/9rdVPM9OT4+OT7z/IKy7TOZuA4lclvY1nl7DoceY6xdNgX4nAcF9zed791KTk1Nzyhr7JzJGTa1nUkJ+RFB+fkJz66HnJB6EhjTUDHRiW9LWWF+Sl30tMSEhKy3la1637KbKBZpUoG3AgqXvka89hsVj8gDsj7VYDvvMFL/ly0vAFgurPDXUXYKjbr/kdqi3kL3B3cAtAwCgCg/d2WOMozLM5oPZDUqPsMHSxWUuD8O2Di+cvXo27k5hw93rMic0rbKcjCL7wbK1yH5shdMAsIDARAsKSY9YohFhs++sdPdRlcpsZS4P6dD2wwN477JlpPQIyuRQHDpkIAfGHtKN7NuyIKDJFXaAoyoylgaLEn4ruxp47c/JE6KmIP2Pic5836e4zmkieAG4AAmZAwKylwQz4AhcBATMlAKTBTBMOuA0IMEsASAOzfIF1QMBMCQBpMNOEA24DAswSANLALF9gHRAwUwJAGsw04YDbgACzBIA0MMsXWAcEzJQAkAYzTTjgNiDALAEgDczyBdYBATMlAKTBTBMOuA0IMEsASAOzfIF1QMBMCQBpMNOEA24DAswSANLALF9gHRAwUwLjlwaS7K/PS0lJezIyLxvRXpJ+PzWj4L2J/sLUvLw108wE3P43ERi/NEi6357wgBG2YFfuf6TrGkMQtDDKgDnDGeFHfMqPigg9fvz48ZAT4THPZKtjym9lUt7+I/r0rrymSWjoxJCS3uZ3b0pfvy6v1j4X3rCkr6OhsqKi5l2n0szdcgLynX96mxvelFU2dHSrTqwsv4T6p7+19vXLVy9fvlLZSkpevf2s46fvekMbaK4oVbNZUt2mPvvOuH0YmdtyMomNcfma9sYvDUR/yzWv7xC+3RF6mXPhs30YCqHetyY6RfJ44YvenPN0tbO25uMwBLv+0aAyv6gpeCt693dWXNjxgFWedgiKcvwz/ldPsJKempQzh9a4OVjIZiLF7D1uqi0zJWkqTAzZ4O0smwoV4tl47rnxqEWT7nS/e3zSZ7E1PW3sdBjhu63fd7NKebJWqUfCilB6pmPl+U9lR8h8P8UF7KVfMDA09dl3pEYhlL0uRXlNVHrhYuN8oD2ZdGJ6Uujf/PH4pYEUd6Wsoxf8uVQzTFGiilB7NsLdlKkvuzMLkxi49SsH5qhLw5R7S/Q0nFk8Uth4Ns72HARC/VJVpjZXQkO0V9zd5sBFEK7L6s1Hzl76Kz4xNT2zqFm1dn2bd3g+DEGI1fJ9ITEJCQmxF3YusMZR7qrg/HYldSBE7ZkBM3EYn70h/M8795LjIg6vsGRj/KVnK1XWWZK2ARHMYv6vmzcqbd6LrH9Afgmtki1mK3PY8NBkC9gL7L38/ccM+/tv2nH6RpXSBLbG+kDPeD/ZxJTS4+s7GL80UJTwyS4WZjv/fssQRYlbLnkIOLZBhSYqDSbgrbDx6b20/Mp3vf0VofY4jOuQBrK3KWkjH+POXH3+Wc3ogs4aMyeZG+bC487YHPe6W1a0yKHuwgN2bJiz/JrSmqDC9CAHLtdyS1xNv2xW9eHO2uveKMqzO6g6bamw/MLPyzZee/pJ6Z6S6nQfO0v3c40qLTKKMjQ0qTSgbr+OLGusZFztwDgfmCCm5tLXdWJC0lAeYst1Xy9tXorurJ/Jd45QWABCCaT484dX2Zkpd+8mpD4oqGrUkt2HBgcHB4ekI5nilpdP0hLikzJyyjo0TuOvZF92oLXVQFFCI7zVZHryzuldD0r0PmqJLW7rHduo2kZQc4JoK7vzR9zjFiVFJvIiXPkcdOedTxL5uIOw6Hc+hvG2Zik1JUT3Am3YbPXVQ9XuQy8h1nrZ04rnGPxaw/Klo9frCc0YaRg1qfRfmw9MEFO68Vd4MBFpoETVWck59d0kXQsNt5ZkphY3idTX+RC+TzsWuFBpURB09o+B18paFGaEJ0Ttqf70CjEQgi26UJgT5jPfUta5pVcQ2ZVU3KXa/CY+PE8K3bxmoe0MNsqxdlmw5kBoclXzTW+NHQqKMtBbWR4gmp4lRB4+fDQi6nGTjiUzxpVj9JQfoq30d3fUwj9a+8L2em5LPjnnLsCR7XGtYllyyNrnfLuj9MDQ2EYWxS62xlD3terDB2MXjexJ11NBVux/3aOQbCoX0QMEuhpEE5QGbT4wQUw1sq/veELSYAAuYf3VVbO4GDJ31f6rWXklVVXlT3PiDvk700unuxx6KpcSejHbqIAAL3sUQiytrXEYd/x5z/6QU6G/rV5gNZ0Fo3NOVkg1SHrTgZfX9riyUJQzb+3+Q6GnTh4JWO9ugSC4+/w5GISpjzUY4OrYJUR/y18rZaNwKM92X4FSN3jsunHu6Sk/g6m7HNgOG9MGe+rzMm5FX7587WZacdVnw30Qvj7mwIY5y660KTxKED4LwnFcoNJqIB6fcOJhiovHa4uJeHF1kZWVc1idWm9C8Rt6QpONNdh7BJ0KClzrtXzxkuV+e4/dLHkvMig6bT4wQ0wxrq9xn1lpIF7dWGmLI/P9rtcrpf1geeJWJxjGeRuSlZ4y0mvYIwjEsfS7Xjs6ck58ztzvyscxV59s+anmohMeLNjaafeDj/K+xnBPY/Z+F4uRJQQnKA1kU+GaWVzZ4DkEeUYrlrGJ5xLd5UdUdcrBwtJpd7DvXP7owm8sFu7qG/y4Q6Goa3WjL/+0pzWGLNqU0arYgiN6k7fZstlW227VD4w2JcRd2TusEAhCBY5ae4Ky+4iqT8/mcWwOvlDquag5oTs0aqizatdceslPzGHJav+AgI1eC6xYMIw57kx/o79tps0HhoipBfeVnWBUGujuPRvhrr7To7q0MSWqC3fGIBTZeEFxjWZJ/GYuguNbY5sUlgaV9DZeXDYdsZpzsUbaTxY3Ry3mITy3yHqV7ER+rr/04w8aH14alazEQEv8L7IFDBFrpyNFk7jUPb2Mos5WtzAn8AeIxYIwi6XH7ufXtXd+rC5JOOTnOB2Z4XKkULYasLZwJNUP9ruxEMGsvTn9Ki+fkf3N99bzMZjtGhB9+1FBwaPb0TvcBCgbRWHEak5UrTaT9Hmiu/7MYhayNPBFl24HdIdG0U9JTuw9fru4bnSwSVT/MOInDEHwJTEfdAufdh+YIqaLyFfwGYPSQIja7/pMg7nWGyKuXFbbrhxYxENhdJ6v4mA13WqAOQ6n3sjbAvSCtKKOpDXT5Otfk+Ku1PXTMIHDiTL1Gkz0NnIuDuMTbDXQQycfSzNiwsIir9wu7tSdZY3PJLrKDznUneH/DQRBtvsetYjlpZvoyQhy5rHxDRd0DECQDflhS1EU53tfb9A4fkl2VCYFLbLn0qu206uw2nvsiD611gHHHJdlfdQxgkANPQx2srCYdaJSMV00Ba4rNE3X0+fERVeXzGCjS3cUfdalO9p8YJSYNp+/hvMMSsNIbf+DNBdq/Dsdhrk+oeW9YxlCKg2OZ6oVsyA5+Cl57Zg0EH0fLv34PTpj7u338uF3eUoRPX/9rG0YUn7RVO/oKj8k2f9o27cozg/MURp2JXoaIjyn4zZut9ReeZKGI3mbc2YZjmC8ny5Wtg8pdiVUwiUGGouePnqYlV9a+5mkyxsPQ/wi6gbGUkHlCyTZX7hfgHNm/Fag5JLKZSOHukLTdD19juj7EL38O93jHTp8YJ6YNsf/5ecZlAZioOXGym8QqznhFd1tGraOjs4+lTEtg6SBXnr8W1TgGKnhQamo4Q/XSWk1UBQ10FrzpralS15zT1pO0F1+hKXBMzk8+yPF/6d4Q0LUnuj7LWI1548qDeVTXJV6zANGOJY+MdUq7y8pGlHZJ4e6n+wVoDC+6JLO19tbXu2ei2ELNz7p0Cofo5Z1hzZ6lfJ/aesSsZpzrkp7x02XD1+OmLLj//IjBqWBooTPD/AwjLfxvq7GqiJgQ6SBfik7iIPB7KUxrSpNfaKnIXr5dxMfayDJ/opLK514EAtGrb1PpLdoz7KK3hu6r6f8CJO32+F26+8rtYkkvY0RntMx2wWJTUrn6Yey5QkH3SGEZ7Pu1nuN/QhtfvXlnfa0xpG5q+6+VxokVr6e6Evwn4FzZh59YYBxPaEpW5YdkW3lB9xgxMkr66NqaKPX6/HhixEb9eer+M+oNFDi3NPzBDj+8+HsNtXMJ25+/uDy8eDYktHHDjRuw6SBGsw5NU+Ao/YewQUKA5wDbX8fc+OhMARBExxrIFpebnViSztBEIL9dL1bbRh1IplDX/lpKwtegFisO1/WI+8XEN3pe5x5bM6mGMVRW3ogpvbh4fkQLHDYkvhB3gsjxV2Z2y1nHsjrJLS1eYiuwnOBLiwMF/glfdIRHSHuytwCY7ggIFvpXSkt8esJbVgiHlL9TZew7uISS4w982C+Yk5QtK/fhy9BTNGjr2KfWWkgh7qLjrvyUJTvufPkreyCkoryVwW5ydHhu1a4W9LDEBbrzlf1SZupwtq08xcC52EQZuUbEh779K1wpGC0vk65eCzQ7XuIY+kTHBP3/DNBUeRQd3HIPB4Kw1zrpQEhZy5cvHjm4I5lI29DONnCEDxjTWjkrZd6hry1p6+ko3KvK/2MjcViQQjue3cSfjNGDnWXxp87GxkeEX7mqLclCqHuO86FR0REnr0Q9aBeuUImPt0PcBfwHP3/vJlXWlb2LDd2j489C7F2+v2ZUvuLloCtbASCWDwbp7mKm8NMNgRviWlW+MnSsKSvvaHqTemLgrRrfwZ5ufAhxMLml6vVHRK5AGkgQtY+XOuAo26/PtRapdPJYUho5FB39k4+38V3y/GYG5mFL0rLy/5OuXF4mT0HxT023X6noaMkdcgAHxghpgHH13SKWWmgq7Wh7pKYbatnKf2OD0G5jit3HYrJHZnrgeZNiNpTNtJvQ7LoHwXCHLc1D1roLEsWRv80E5f+BhDGuPMiq2R142Bn0cX1S2ey5D8PRGct8r9UXH/3Vz5GW+Eu2vbE8G63apKLmu7t9ptrwRbMXhKUWtJtSIWpakLlWNLbGLMcQ8feVJAqD4sFo5Zb4t4KVdrSwvcp+zbMGYOGu/oezWpXGZohxF3Zv9lbyh6zjhqU/ofRWSfK5e0IihKWhtiwERktGOfNW38y+lmnikEVn+m1yK/9aKkC6sEAAAKGSURBVIFilgdzu7Q2QCiDQxO1pB/c7Kb0Xiz9quvmqJQGHfJkkA8UNenE1GB8ZScYlwYpz3/6W6ufZqYnx8cn33+QV1ymfd4Bo/iTn6pePkpNTkpNyy9/16e12jHKpulcPNzXXJ53PzUpOTW3vKFPtUdmrJ+ihvyMpPj4hOTUR89LPgi19TSUzRJ9ZemJdxIf1eoousrf0Hc0LOlrLS/IS7+XmJCQlJbztK5bZcBIzYARPkwuMTVPvq4TX0gavi6oIFpAwPwJAGkw/zQEEQACDBAA0sAAVGASEDB/AkAazD8NQQSAAAMEgDQwABWYBATMnwCQBvNPQxABIMAAASANDEAFJgEB8ycApMH80xBEAAgwQABIAwNQgUlAwPwJAGkw/zQEEQACDBAA0sAAVGASEDB/AkAazD8NQQSAAAMEgDQwABWYBATMnwCQBvNPQxABIMAAASANDEAFJgEB8ycApMH80xBEAAgwQABIAwNQgUlAwPwJAGkw/zQEEQACDBAA0sAAVGASEDB/AkAazD8NQQSAAAMEgDQwABWYBATMnwCQBvNPQxABIMAAASANDEAFJgEB8ycApMH80xBEAAgwQABIAwNQgUlAwPwJAGkw/zQEEQACDBAA0sAAVGASEDB/AkAazD8NQQSAAAMEgDQwABWYBATMnwCQBvNPQxABIMAAASANDEAFJgEB8ycApMH80xBEAAgwQABIAwNQgUlAwPwJAGkw/zQEEQACDBAA0sAAVGASEDB/AkAazD8NQQSAAAMEgDQwABWYBATMnwCQBvNPQxABIMAAASANDEAFJgEB8ycApMH80xBEAAgwQABIAwNQgUlAwPwJAGkw/zQEEQACDBD4fy/qI1WP/Xb9AAAAAElFTkSuQmCC;" vertex="1" parent="1">
          <mxGeometry x="420" y="244.5" width="160.81" height="51" as="geometry" />
        </mxCell>
        <mxCell id="NCOwUVDB0enq9Q0JQrQG-20" value="复制" style="rounded=0;whiteSpace=wrap;html=1;" vertex="1" parent="1">
          <mxGeometry x="590" y="240" width="110" height="60" as="geometry" />
        </mxCell>
        <mxCell id="NCOwUVDB0enq9Q0JQrQG-21" value="" style="rounded=0;whiteSpace=wrap;html=1;" vertex="1" parent="1">
          <mxGeometry x="170" y="510" width="530" height="60" as="geometry" />
        </mxCell>
        <mxCell id="NCOwUVDB0enq9Q0JQrQG-22" value="" style="rounded=0;whiteSpace=wrap;html=1;" vertex="1" parent="1">
          <mxGeometry x="170" y="440" width="520" height="60" as="geometry" />
        </mxCell>
        <mxCell id="NCOwUVDB0enq9Q0JQrQG-23" value="生成url" style="rounded=0;whiteSpace=wrap;html=1;" vertex="1" parent="1">
          <mxGeometry x="170" y="440" width="120" height="60" as="geometry" />
        </mxCell>
        <mxCell id="NCOwUVDB0enq9Q0JQrQG-24" value="复制" style="rounded=0;whiteSpace=wrap;html=1;" vertex="1" parent="1">
          <mxGeometry x="620" y="440" width="80" height="60" as="geometry" />
        </mxCell>
        <mxCell id="NCOwUVDB0enq9Q0JQrQG-25" value="post" style="rounded=0;whiteSpace=wrap;html=1;" vertex="1" parent="1">
          <mxGeometry x="170" y="510" width="80" height="60" as="geometry" />
        </mxCell>
        <mxCell id="NCOwUVDB0enq9Q0JQrQG-28" value="ip" style="rounded=0;whiteSpace=wrap;html=1;" vertex="1" parent="1">
          <mxGeometry x="170" y="200" width="260" height="30" as="geometry" />
        </mxCell>
        <mxCell id="NCOwUVDB0enq9Q0JQrQG-29" value="path" style="rounded=0;whiteSpace=wrap;html=1;" vertex="1" parent="1">
          <mxGeometry x="450" y="200" width="250" height="30" as="geometry" />
        </mxCell>
      </root>
    </mxGraphModel>
  </diagram>
</mxfile>
